<?xml version="1.0" encoding="UTF-8"?>
<svg id="uuid-79c66441-b5a9-4c77-9a75-83e8585e3005" data-name="Layer 1" xmlns="http://www.w3.org/2000/svg" width="300" height="300" viewBox="0 0 300 300">
  <path d="M210.22379,48.3871H37.95363c-6.25403,0-11.34073,5.0867-11.34073,11.34073v228.93145c0,6.25403,5.08669,11.34073,11.34073,11.34073H210.22379c6.24798,0,11.33467-5.0867,11.33467-11.34073V59.72782c0-6.25403-5.0867-11.34073-11.33467-11.34073Zm-38.4496,159.67742H79.83871c-5.34677,0-9.67742-4.33065-9.67742-9.67742s4.33065-9.67742,9.67742-9.67742h91.93548c5.34677,0,9.67742,4.33065,9.67742,9.67742s-4.33065,9.67742-9.67742,9.67742Zm0-38.70968H79.83871c-5.34677,0-9.67742-4.33065-9.67742-9.67742s4.33065-9.67742,9.67742-9.67742h91.93548c5.34677,0,9.67742,4.33065,9.67742,9.67742s-4.33065,9.67742-9.67742,9.67742Zm0-38.70968H79.83871c-5.34677,0-9.67742-4.33065-9.67742-9.67742s4.33065-9.67742,9.67742-9.67742h91.93548c5.34677,0,9.67742,4.33065,9.67742,9.67742s-4.33065,9.67742-9.67742,9.67742ZM273.3871,29.03226V241.93548c0,14.61291-11.75868,29.03226-32.47379,29.03226V59.72782c0-16.92943-13.76613-30.69556-30.68951-30.69556H59.0867C59.0867,13.02218,72.88306,0,89.83669,0H242.6371C259.59073,0,273.3871,13.02218,273.3871,29.03226Z" fill="#1b365d"/>
</svg>