<?xml version="1.0" encoding="UTF-8"?>
<svg id="uuid-2b91dea7-abe3-4e35-86eb-259b005b9a43" data-name="Layer 1" xmlns="http://www.w3.org/2000/svg" width="300" height="300" viewBox="0 0 300 300">
  <path d="M168.28201,195.37337c-5.30326-4.98584-13.26673-5.8566-19.52226-2.13546l-12.04851,33.70624,33.70624-12.20149c3.74973-6.19621,2.87467-14.13896-2.13547-19.36928Zm-31.4185-9.15096c.65844-1.34905,1.59355-2.54439,2.74528-3.5081l1.98246-1.98246,90.28912-90.28913V.00059H49.62422c.56336,3.74831-2.01821,7.24355-5.76653,7.8069-3.74831,.56336-7.24355-2.01821-7.8069-5.76653-.10152-.67631-.10152-1.36406,0-2.04038h-12.20151C12.64651-.08377,3.49699,8.9292,3.41263,20.13196c-.00071,.05076-.00071,.10223-.00071,.15299V279.5621c-.08436,11.20277,8.92861,20.35228,20.13066,20.43736,.10223,.00072,.20447,.00072,.30599,0h12.20151c-.56335-3.74832,2.01821-7.24354,5.76653-7.80691,3.74831-.56335,7.24355,2.01821,7.8069,5.76654,.10152,.67632,.10152,1.36406,0,2.04038H231.87968v-126.13082l-48.34777,48.50004-2.59301,2.13546c-.72993,1.08453-1.80445,1.89095-3.05055,2.28775l-49.41514,17.53907c-.75495,.15229-1.53278,.15229-2.28774,0h-1.98246c-1.13815-.21591-2.1948-.74422-3.05055-1.52492-1.84163-1.96103-2.43072-4.7878-1.52492-7.32075l17.23596-49.26288ZM43.85769,125.24492c-3.74831,.56335-7.24355-2.01821-7.8069-5.76652-.10152-.67631-.10152-1.36407,0-2.04038v-13.26888c.56335-3.74831,4.05859-6.32989,7.8069-5.76652,2.97978,.44825,5.31899,2.78675,5.76653,5.76652v13.26888c.56407,3.74759-2.01822,7.24354-5.76653,7.8069Zm0,78.08835c-3.74831,.56335-7.24355-2.01821-7.8069-5.76654-.10152-.67632-.10152-1.36406,0-2.04038v-13.1166c.56335-3.74831,4.05859-6.32989,7.8069-5.76652,2.97978,.44825,5.31899,2.78675,5.76653,5.76652v13.1166c.56407,3.7476-2.01822,7.24284-5.76653,7.80691Zm5.76653,57.16411v13.11661c.56336,3.74832-2.01821,7.24354-5.76653,7.80691-3.74831,.56335-7.24355-2.01821-7.8069-5.76654-.10152-.67632-.10152-1.36406,0-2.04038v-13.11659c-.56335-3.74832,2.01821-7.24354,5.76653-7.80691,3.74831-.56335,7.24355,2.01821,7.8069,5.76654,.10223,.6763,.10223,1.36406,0,2.04036Zm0-38.89153v13.11659c-.56336,3.74832-4.05859,6.32989-7.8069,5.76654-2.97978-.44826-5.31899-2.78676-5.76653-5.76654v-13.11659c-.56335-3.74832,2.01821-7.24354,5.76653-7.80691,3.74831-.56335,7.24355,2.01821,7.8069,5.76654,.10223,.67632,.10223,1.36408,0,2.04038Zm0-78.08835v13.1166c.56336,3.74831-2.01821,7.24355-5.76653,7.8069-3.74831,.56335-7.24355-2.01821-7.8069-5.76652-.10152-.67631-.10152-1.36407,0-2.04038v-13.1166c-.56335-3.74831,2.01821-7.24355,5.76653-7.8069,3.74831-.56335,7.24355,2.01821,7.8069,5.76652,.10223,.67632,.10223,1.36407,0,2.04038Zm0-78.39289v13.42116c.56336,3.74831-2.01821,7.24355-5.76653,7.8069-3.74831,.56336-7.24355-2.01821-7.8069-5.76653-.10152-.67631-.10152-1.36406,0-2.04037v-13.42116c-.56335-3.74832,2.01821-7.24355,5.76653-7.8069s7.24355,2.01821,7.8069,5.76653c.10223,.67631,.10223,1.36406,0,2.04037Zm0-38.89154v12.96361c.56336,3.74831-2.01821,7.24355-5.76653,7.80691-3.74831,.56336-7.24355-2.01821-7.8069-5.76653-.10152-.67631-.10152-1.36406,0-2.04038v-12.96361c-.56335-3.74831,2.01821-7.24355,5.76653-7.8069,3.74831-.56336,7.24355,2.01821,7.8069,5.76653,.10223,.67631,.10223,1.36406,0,2.04038Zm41.48454,83.73119c-3.61891,.00787-6.62229-2.79533-6.86321-6.40567V45.90761c-.08508-3.78978,2.91758-6.93041,6.70736-7.01549,.10295-.00214,.2059-.00214,.30884,0h99.89764c3.76691-.42252,7.16277,2.28845,7.58599,6.05536,.03574,.31885,.04933,.63985,.04004,.96085v57.65098c-.22878,3.78334-3.48093,6.6659-7.26429,6.43712-.12083-.00715-.24093-.01787-.36104-.03146H91.10876v-.0007Zm201.30661-36.50728c-.33457-.35389-.68632-.69133-1.05379-1.01161-6.34132-5.96599-16.23078-5.96599-22.5721,0l-1.6779,1.37264c5.76296,1.05808,11.07551,3.82124,15.25135,7.93059,3.92561,4.00855,6.67017,9.02155,7.93058,14.48924l1.52492-1.22037c6.11967-5.78869,6.38635-15.44223,.59695-21.56049Zm-18.79734,19.22057c-.22878-.2445-.46541-.48114-.70992-.70991-6.28342-6.42568-16.57895-6.56223-23.02966-.30527l-86.47647,86.47648c5.71077,.9294,11.0176,3.53027,15.25135,7.47304,4.1787,4.10506,6.90897,9.45837,7.77831,15.25135l86.47647-86.62876c6.1483-5.75653,6.46644-15.40792,.70992-21.55693Z" fill="#1b365d"/>
</svg>