<?xml version="1.0" encoding="UTF-8"?>
<svg id="uuid-7b7e9461-4eeb-4c18-a58f-4b487e4ec868" data-name="Layer 1" xmlns="http://www.w3.org/2000/svg" width="300" height="300" viewBox="0 0 300 300">
  <path d="M150,0c20.31587,0,36.78516,16.46928,36.78516,36.78516s-16.46928,36.78516-36.78516,36.78516-36.78516-16.46927-36.78516-36.78516S129.68411,0,150,0ZM73.0957,224.12109c-20.92383,0-37.93945,17.01563-37.93945,37.93945s17.01563,37.93945,37.93945,37.93945,37.93945-17.01563,37.93945-37.93945-17.01563-37.93945-37.93945-37.93945Zm0,46.72852c-4.85156,0-8.78906-3.9375-8.78906-8.78906,0-4.85743,3.9375-8.78906,8.78906-8.78906,4.85742,0,8.78906,3.93164,8.78906,8.78906,0,4.85156-3.93164,8.78906-8.78906,8.78906Zm152.75976-46.72852c-20.92382,0-37.93945,17.01563-37.93945,37.93945s17.01563,37.93945,37.93945,37.93945,37.93945-17.01563,37.93945-37.93945-17.01563-37.93945-37.93945-37.93945Zm0,46.72852c-4.85743,0-8.78906-3.9375-8.78906-8.78906,0-4.85743,3.93164-8.78906,8.78906-8.78906,4.85156,0,8.78906,3.93164,8.78906,8.78906,0,4.85156-3.9375,8.78906-8.78906,8.78906ZM100.01953,124.21875H26.36718c-5.82422,0-11.30859,1.875-15.76172,5.20313-2.82422-4.15429-5.08594-8.78906-6.65039-13.83398-1.4877-4.48008,1.25449-9.6961,5.79492-10.99805l32.19141-9.98438-6.33984-19.18945c-1.52344-4.61133,.97851-9.58008,5.58398-11.10351,4.61133-1.52344,9.58008,.97851,11.10352,5.58398l6.44531,19.5,33.84375-10.49414c4.63477-1.43555,9.55664,1.1543,10.99805,5.79492,4.10156,13.21875,2.83594,27.24609-3.55664,39.52148h0Zm127.71094,0h-61.15429l-19.46484-33.14649c19.22872,1.09804,37.24043-8.39883,47.49609-23.24414l33.12305,56.39063Zm72.26953-63.01172c0,4.85742-3.9375,8.78906-8.78906,8.78906h-2.40819c-15.05274,0-27.79101-10.06641-31.85155-23.82422h-21.02344c-3.5121,10.3084-13.9084,17.7375-24.86719,17.57812h-13.86915c4.56446-7.95117,7.17187-17.16211,7.17187-26.96484,0-9.3164-2.35546-18.09961-6.50391-25.76953h13.20117c11.45507,0,21.22852,7.34766,24.85548,17.57812h20.70118c3.65624-14.36719,16.69922-25.01953,32.18554-25.01953h2.40819c4.85156,0,8.78906,3.93164,8.78906,8.78906,0,4.85156-3.9375,8.78906-8.78906,8.78906h-2.40819c-8.61914,0-15.63281,7.01367-15.63281,15.63281s7.01367,15.63281,15.63281,15.63281h2.40819c4.85156,0,8.78906,3.9375,8.78906,8.78906Zm-4.16016,114.1289H4.166l14.33789-28.68164c1.48828-2.97656,4.53516-4.85742,7.86328-4.85742h247.26563c3.32812,0,6.375,1.88086,7.86329,4.85742l14.34374,28.68164Zm4.16016,17.57812v45.56251c0,3.75-2.3789,7.08398-5.92382,8.30859l-13.71093,4.72852c-4.93945-25.58788-27.50391-44.9707-54.50976-44.9707-29.58398,0-53.83008,23.25-55.42969,52.44141h-41.9004c-1.59961-29.19141-25.8457-52.44141-55.42969-52.44141-26.88281,0-49.3711,19.2129-54.44531,44.63085l-12.72656-4.38867C2.37891,245.56054,0,242.22656,0,238.47656v-45.56251H300Z" fill="#1b365d"/>
</svg>