<?xml version="1.0" encoding="UTF-8"?>
<svg id="uuid-3c8ecd30-62cf-45ae-9840-6c890620aebd" xmlns="http://www.w3.org/2000/svg" version="1.1" viewBox="0 0 300 300">
  <!-- Generator: Adobe Illustrator 29.5.1, SVG Export Plug-In . SVG Version: 2.1.0 Build 141)  -->
  <defs>
    <style>
      .st0 {
        fill: #1b365d;
      }
    </style>
  </defs>
  <path class="st0" d="M258.7,187.8V46.1H41.3v141.7h102.5c5.2-29.5,33.3-49.3,62.8-44.1,22.5,3.9,40.1,21.6,44.1,44.1h8ZM112.2,70.9h75.6c4.6,0,8.3,3.7,8.3,8.3s-3.7,8.3-8.3,8.3h-75.6c-4.6,0-8.3-3.7-8.3-8.3s3.7-8.3,8.3-8.3ZM140.6,153.5h-66.1c-4.6,0-8.3-3.7-8.3-8.3s3.7-8.3,8.3-8.3h66.1c4.6,0,8.3,3.7,8.3,8.3s-3.7,8.3-8.3,8.3ZM225.6,120.5H74.4c-4.6,0-8.3-3.7-8.3-8.3s3.7-8.3,8.3-8.3h151.2c4.6,0,8.3,3.7,8.3,8.3s-3.7,8.3-8.3,8.3Z"/>
  <path class="st0" d="M291.7,4.7H8.3C3.7,4.7,0,8.4,0,13v207.9c0,4.6,3.7,8.3,8.3,8.3h145.1c-5.3-7.3-8.7-15.8-9.9-24.8H33.1c-4.6,0-8.3-3.7-8.3-8.3V37.8c0-4.6,3.7-8.3,8.3-8.3h233.9c4.6,0,8.3,3.7,8.3,8.3v158.3c0,4.6-3.7,8.3-8.3,8.3h-15.9c-1.2,9-4.6,17.5-9.9,24.8h50.6c4.6,0,8.3-3.7,8.3-8.3V13c0-4.6-3.7-8.3-8.3-8.3Z"/>
  <path class="st0" d="M174.2,246.4v40.6c0,4.6,3.7,8.3,8.3,8.3,2.1,0,4.2-.8,5.7-2.3l9-8.7,9,8.7c3.3,3.2,8.5,3.1,11.7-.2,1.5-1.5,2.3-3.6,2.3-5.7v-40.6c-14.6,6.9-31.5,6.9-46.1,0Z"/>
  <circle class="st0" cx="197.2" cy="197.2" r="37.8"/>
</svg>