<?xml version="1.0" encoding="UTF-8"?>
<svg id="uuid-4cb5c309-b613-4639-89e1-cb0a1a60eef8" data-name="Layer 1" xmlns="http://www.w3.org/2000/svg" width="300" height="300" viewBox="0 0 300 300">
  <path d="M174.09468,117.4857c-5.14471-8.44823-14.11059-13.49235-23.98588-13.49235-7.91059,0-15.22706,3.2-20.60176,9.01118-4.80588,5.19588-7.45294,11.95941-7.45294,19.04353,0,15.47,12.58588,28.05529,28.05529,28.05529s28.05529-12.58588,28.05529-28.05529c0-2.88-.43294-5.71705-1.28705-8.43176-.67471-2.14294-1.61118-4.20529-2.78293-6.13059h-.00002Zm-16.85823,60.81175h-14.25529c-15.50294,0-29.74764,7.79588-38.10411,20.85352-4.66824,7.29352-7.13588,15.72589-7.13588,24.38647v31.2494h104.73586v-31.2494c0-8.66001-2.46765-17.09235-7.13589-24.38647-8.35706-13.05764-22.60176-20.85352-38.10469-20.85352ZM63.23916,48.47238c21.74315-9.01258,46.6756,1.30758,55.68819,23.05074s-1.30759,46.67561-23.05074,55.68819c-21.74315,9.01258-46.6756-1.30758-55.68819-23.05074-9.01258-21.74315,1.30758-46.6756,23.05074-55.68819Zm16.85496,175.06506c0-12.03882,3.43-23.76118,9.91941-33.89941,7.07941-11.06176,17.20118-19.39941,28.90293-24.23117-7.40765-6.93117-12.50647-16.29176-14.02647-26.79705-6.69,5.7947-14.68882,9.50118-25.36941,9.50118-13.56765,0-26.10059-4.50882-36.18353-12.10471-12.98,5.5153-24.20411,14.85412-32.09294,27.18059C3.88823,174.68041,0,187.96805,0,201.61393v34.73293H80.09411v-12.80941ZM190.32283,57.74713c16.6368-16.6368,43.61039-16.6368,60.2472,0,16.63681,16.63681,16.63681,43.6104,0,60.2472-16.6368,16.6368-43.61039,16.6368-60.2472,0-16.63681-16.63681-16.63681-43.6104,0-60.2472Zm98.43302,105.44032c-7.88883-12.32646-19.11235-21.66529-32.09293-27.18118-10.08293,7.59647-22.61587,12.10529-36.18293,12.10529-10.62706,0-18.51176-3.99411-25.07588-10.07411-1.4147,10.73764-6.56058,20.31352-14.10235,27.36999,11.70177,4.83118,21.82412,13.16941,28.90294,24.23117,6.48942,10.13941,9.91941,21.86177,9.91941,33.89941v12.80882h79.87587v-34.73293c0-13.64529-3.88823-26.93294-11.24411-38.42646h-.00004Z" fill="#1b365d"/>
</svg>