<?xml version="1.0" encoding="UTF-8"?>
<svg id="uuid-3c8ecd30-62cf-45ae-9840-6c890620aebd" data-name="Layer 1" xmlns="http://www.w3.org/2000/svg" width="300" height="300" viewBox="0 0 300 300">
  <path d="M285,15h-45V0H60V15H15C6,15,0,21,0,30v36c0,34.5,25.5,63,60,67.49999v1.50001c0,43.49999,30,79.5,70.5,88.49999l-10.5,31.50001h-34.5c-6,0-12,4.49999-13.5,10.50001l-12,34.49999H240l-12-34.49999c-1.50001-5.99999-7.5-10.50001-13.49999-10.50001h-34.5l-10.5-31.50001c40.5-9.00001,70.5-45,70.5-88.49999v-1.50001c34.49999-4.5,60-33,60-67.5V29.99999c0-9-5.99999-15-15-15h0ZM30,66v-21h30v58.5c-16.5-4.5-30-19.5-30-37.5Zm150,84l-30-16.50001-30,16.50001,7.5-30-22.5-30h31.50001l13.49999-30,13.49999,30h31.50001l-22.5,30,7.5,30Zm90-84c0,18-13.49999,34.5-30,37.5V45h30v21Z" fill="#1b365d"/>
</svg>