<?xml version="1.0" encoding="UTF-8"?>
<svg id="uuid-00fc2797-b40d-470a-871e-9f06699ff4cf" data-name="Layer 1" xmlns="http://www.w3.org/2000/svg" width="300" height="300" viewBox="0 0 300 300">
  <path d="M53.41347,216.3498V0h-14.4082C17.77793,0,.508,17.26992,.508,38.49727V228.57422c8.81895-7.60839,20.2875-12.22501,32.82129-12.22501h20.08418v.00059Zm179.77501-66.96504c1.89199,0,3.76816,.06914,5.6291,.19336V0H70.95938V216.3498h80.12461c7.8164-38.16739,41.66073-66.96504,82.10449-66.96504ZM124.20938,51.66269h58.72266v17.5459h-58.72266v-17.5459Zm-19.83574,38.0918h98.39414v17.5459H104.37364v-17.5459Zm56.46973,185.68946H44.97129v-17.5459h108.13242c-2.40176-7.76777-3.70195-16.01366-3.71718-24.55605H33.3293C14.95137,233.34199,0,248.29336,0,266.67071s14.95137,33.32929,33.3293,33.32929H182.66015c-8.78379-6.65917-16.21758-15.00644-21.8168-24.55605h.00002Zm72.34511-109.06699c-36.84023,0-66.81211,29.97129-66.81211,66.81152s29.97188,66.81152,66.81211,66.81152,66.81152-29.97188,66.81152-66.81152-29.97188-66.81152-66.81152-66.81152Zm-.00644,26.81367c4.92715,0,8.57577,4.02714,8.78906,8.78906,.2127,4.74669-4.19179,8.78906-8.78906,8.78906-4.92715,0-8.57577-4.02714-8.78906-8.78906-.2127-4.74669,4.19179-8.78906,8.78906-8.78906Zm8.80898,74.25175h-17.57812v-44.99942h17.57812v44.99942Z" fill="#1b365d"/>
</svg>