<?xml version="1.0" encoding="UTF-8"?>
<svg id="uuid-e2a7dea5-4700-4a62-a614-eef75b3d1396" data-name="Layer 1" xmlns="http://www.w3.org/2000/svg" width="300" height="300" viewBox="0 0 300 300">
  <path d="M76.12806,299.6295l5.51617-1.54152c5.30581-1.48309,8.40495-6.98636,6.92233-12.29231L25.49946,60.1028c-.88994-3.18509-3.00874-5.88617-5.89026-7.50901-2.88152-1.62284-6.2897-2.03451-9.47474-1.14442l-.71238,.19889c-6.63291,1.85324-10.50763,8.73259-8.65447,15.36551l63.06865,225.69287c1.48263,5.30595,6.98582,8.4054,12.29179,6.92285v.00002Zm222.09324-157.71916c-19.99997-9.97248-38.50205-22.70137-54.96539-37.81454-1.38388-1.26679-1.92514-3.21133-1.3948-5.01094,8.15738-30.86024,14.21537-62.23751,18.13237-93.91644,.6199-5.26924-2.22135-6.81902-5.21757-3.20287C195.98773,72.27373,94.27077-10.89759,33.72617,53.00485c.72689,1.36095,1.29872,2.79919,1.70475,4.28771l40.91409,146.50551c60.6479-63.12755,162.00327,19.52717,220.68813-50.62602,2.99624-3.61615,3.56448-10.22852,1.18816-11.26171h0Z" fill="#1b365d"/>
</svg>